<?xml version="1.0" encoding="UTF-8" standalone="no"?>
<!-- Generator: Adobe Illustrator 19.0.0, SVG Export Plug-In . SVG Version: 6.00 Build 0)  -->

<svg
   xmlns:dc="http://purl.org/dc/elements/1.1/"
   xmlns:cc="http://creativecommons.org/ns#"
   xmlns:rdf="http://www.w3.org/1999/02/22-rdf-syntax-ns#"
   xmlns:svg="http://www.w3.org/2000/svg"
   xmlns="http://www.w3.org/2000/svg"
   xmlns:sodipodi="http://sodipodi.sourceforge.net/DTD/sodipodi-0.dtd"
   xmlns:inkscape="http://www.inkscape.org/namespaces/inkscape"
   version="1.1"
   id="Capa_1"
   x="0px"
   y="0px"
   viewBox="0 0 734.2995 734.2995"
   xml:space="preserve"
   width="768"
   height="768"
   inkscape:version="0.91 r13725"
   sodipodi:docname="reload.svg"><metadata
     id="metadata41"><rdf:RDF><cc:Work
         rdf:about=""><dc:format>image/svg+xml</dc:format><dc:type
           rdf:resource="http://purl.org/dc/dcmitype/StillImage" /><dc:title /></cc:Work></rdf:RDF></metadata><defs
     id="defs39" /><sodipodi:namedview
     pagecolor="#ffffff"
     bordercolor="#666666"
     borderopacity="1"
     objecttolerance="10"
     gridtolerance="10"
     guidetolerance="10"
     inkscape:pageopacity="0"
     inkscape:pageshadow="2"
     inkscape:window-width="1301"
     inkscape:window-height="744"
     id="namedview37"
     showgrid="false"
     inkscape:zoom="0.64"
     inkscape:cx="270.80122"
     inkscape:cy="378.26688"
     inkscape:window-x="65"
     inkscape:window-y="24"
     inkscape:window-maximized="1"
     inkscape:current-layer="Capa_1" /><circle
     style="opacity:1;fill:#d62d20;fill-opacity:1;stroke:none"
     id="path4181"
     cx="363.92285"
     cy="362.90695"
     r="348.98349" /><g
     id="g3"
     transform="matrix(0.88424478,0,0,0.82910139,153.28346,153.31515)"
     style="fill:#ffffff"><path
       d="m 268.175,488.161 c 98.2,-11 176.9,-89.5 188.1,-187.7 14.7,-128.4 -85.1,-237.7 -210.2,-239.1 l 0,-57.6 c 0,-3.2 -4,-4.9 -6.7,-2.9 l -118.6,87.1 c -2,1.5 -2,4.4 0,5.9 l 118.6,87.1 c 2.7,2 6.7,0.2 6.7,-2.9 l 0,-57.5 c 87.9,1.4 158.3,76.2 152.3,165.6 -5.1,76.9 -67.8,139.3 -144.7,144.2 -81.5,5.2 -150.8,-53 -163.2,-130 -2.3,-14.3 -14.8,-24.7 -29.2,-24.7 -17.9,0 -31.9,15.9 -29.1,33.6 17.4,109.7 118.7,192 236,178.9 z"
       id="path5"
       inkscape:connector-curvature="0"
       style="fill:#ffffff" /></g><g
     id="g7"
     transform="translate(0,244.76651)" /><g
     id="g9"
     transform="translate(0,244.76651)" /><g
     id="g11"
     transform="translate(0,244.76651)" /><g
     id="g13"
     transform="translate(0,244.76651)" /><g
     id="g15"
     transform="translate(0,244.76651)" /><g
     id="g17"
     transform="translate(0,244.76651)" /><g
     id="g19"
     transform="translate(0,244.76651)" /><g
     id="g21"
     transform="translate(0,244.76651)" /><g
     id="g23"
     transform="translate(0,244.76651)" /><g
     id="g25"
     transform="translate(0,244.76651)" /><g
     id="g27"
     transform="translate(0,244.76651)" /><g
     id="g29"
     transform="translate(0,244.76651)" /><g
     id="g31"
     transform="translate(0,244.76651)" /><g
     id="g33"
     transform="translate(0,244.76651)" /><g
     id="g35"
     transform="translate(0,244.76651)" /></svg>